<?xml version="1.0" encoding="utf-8"?>
<!-- Generator: Adobe Illustrator 17.0.0, SVG Export Plug-In . SVG Version: 6.00 Build 0)  -->
<!DOCTYPE svg PUBLIC "-//W3C//DTD SVG 1.1//EN" "http://www.w3.org/Graphics/SVG/1.1/DTD/svg11.dtd">
<svg version="1.1" id="Objects" xmlns="http://www.w3.org/2000/svg" xmlns:xlink="http://www.w3.org/1999/xlink" x="0px" y="0px"
	 width="165.726px" height="97.085px" viewBox="0 0 165.726 97.085" enable-background="new 0 0 165.726 97.085"
	 xml:space="preserve">
<path fill="#726F70" d="M165.1,21.135c-5.796-3.046-13.053-4.638-19.314-2.565c1.565-2.48,2.992-5.043,4.328-7.653
	c0.851-1.663-1.652-3.131-2.505-1.465c-1.088,2.126-2.252,4.186-3.479,6.188c-0.839-5.883-4.528-11.371-8.924-15.332
	c-0.896-0.807-2.119,0.126-2.276,1.076c-1.226,7.417,1.146,15.572,7.042,20.438c-2.511,3.435-5.228,6.674-8.135,9.714
	c0.238-6.207-2.777-12.479-6.77-17.201c-0.779-0.92-2.117-0.161-2.4,0.759c-2.222,7.2-0.963,15.625,4.254,21.243
	c-3.066,2.804-6.299,5.423-9.668,7.874c1.155-6.365-1.265-13.223-4.912-18.518c-0.685-0.993-2.092-0.369-2.464,0.518
	c-2.925,6.958-2.496,15.482,2.162,21.588c-3.507,2.285-7.137,4.403-10.863,6.366c1.974-5.831,0.932-12.638-1.48-18.272
	c-0.474-1.108-1.977-0.774-2.518,0.021c-4.192,6.174-5.472,14.495-2.249,21.357c-3.841,1.802-7.761,3.456-11.735,4.966
	c2.8-5.799,2.33-13.02,0.268-19.081c-0.389-1.142-1.912-0.923-2.512-0.171c-4.718,5.917-6.622,14.265-3.766,21.419
	c-4.457,1.522-8.963,2.876-13.478,4.082c3.463-5.724,3.425-13.27,1.623-19.659c-0.326-1.16-1.86-1.022-2.499-0.304
	c-5.076,5.715-7.426,14.063-4.828,21.415c-4.272,1.033-8.6,1.962-12.96,2.785c3.949-5.602,4.296-13.332,2.737-19.939
	c-0.277-1.173-1.815-1.102-2.483-0.412c-5.352,5.525-8.058,13.83-5.703,21.322c-4.172,0.691-8.366,1.273-12.57,1.74
	c4.672-4.978,6.111-12.55,5.519-19.288c-0.106-1.202-1.638-1.351-2.399-0.764c-6.169,4.763-10.051,12.742-8.64,20.594
	c-4.305,0.37-8.61,0.613-12.902,0.711c5.382-3.932,8.269-10.872,9.094-17.436c0.15-1.197-1.316-1.667-2.183-1.253
	c-7.16,3.412-12.703,10.579-12.8,18.728c-0.425-0.003-0.852,0-1.277-0.006c-0.01,0-0.021-0.001-0.031-0.001
	c-1.872-0.034-1.869,2.868,0,2.901c0.46,0.008,0.921,0.006,1.38,0.011c0.682,7.553,5.987,14.093,12.728,17.305
	c0.866,0.413,2.333-0.056,2.183-1.253c-0.74-5.892-3.149-12.081-7.526-16.132c3.986-0.124,7.98-0.37,11.974-0.731
	c2.14,7.444,8.823,12.874,16.221,14.621c0.936,0.221,2.27-0.547,1.87-1.685c-1.885-5.371-5.325-10.69-10.129-13.795
	c3.513-0.443,7.015-0.966,10.5-1.555c3.107,7.24,10.604,11.775,18.287,12.453c0.957,0.084,2.168-0.867,1.608-1.937
	c-2.58-4.937-6.628-9.606-11.673-12.038c3.256-0.651,6.491-1.352,9.693-2.102c0.205-0.047,0.41-0.1,0.615-0.148
	c3.392,7.159,11.111,11.407,18.852,11.754c0.96,0.043,2.128-0.96,1.523-2.004c-2.874-4.968-7.291-9.593-12.649-11.727
	c3.887-1.07,7.758-2.256,11.595-3.564c3.731,7.072,11.726,10.965,19.533,10.9c0.962-0.008,2.074-1.071,1.415-2.082
	c-3.297-5.057-8.281-9.637-14.115-11.296c3.754-1.446,7.457-3.021,11.09-4.731c4.212,6.939,12.588,10.302,20.465,9.634
	c0.957-0.082,1.986-1.227,1.251-2.184c-3.866-5.042-9.555-9.414-15.875-10.35c4.049-2.12,7.99-4.421,11.79-6.919
	c5.512,5.811,14.275,7.392,21.782,5.205c0.923-0.27,1.705-1.595,0.795-2.389c-4.519-3.947-10.515-6.985-16.542-7.034
	c3.134-2.337,6.145-4.831,9.023-7.478c6.059,5.289,14.972,6.015,22.251,3.089c0.893-0.359,1.54-1.755,0.558-2.455
	c-5.137-3.66-11.796-6.165-18.071-5.266c3.057-3.184,5.925-6.572,8.571-10.183c6.723,4.45,15.672,3.973,22.503,0.083
	C165.715,23.165,166.17,21.695,165.1,21.135z M14.271,62.049c-1.19,4.946-3.974,10.411-8.551,13.083
	C6.368,69.711,9.764,65.046,14.271,62.049z M14.271,92.888c-4.507-2.998-7.903-7.662-8.551-13.082
	C10.298,82.477,13.082,87.942,14.271,92.888z M29.786,59.602c-0.119,5.086-1.685,11.015-5.596,14.593
	C23.678,68.761,26.013,63.483,29.786,59.602z M36.296,89.747c-5.037-1.978-9.342-5.821-11.119-10.983
	C30.214,80.409,34.089,85.164,36.296,89.747z M45.548,56.601c0.612,5.05-0.088,11.143-3.444,15.244
	C40.818,66.539,42.372,60.982,45.548,56.601z M56.314,85.499c-5.269-1.235-10.08-4.422-12.579-9.275
	C48.957,77.13,53.473,81.279,56.314,85.499z M63.265,52.736c0.829,5.019,0.393,11.136-2.783,15.378
	C58.969,62.87,60.281,57.251,63.265,52.736z M75.268,81.143c-5.317-1.007-10.261-3.982-12.968-8.724
	C67.556,73.1,72.249,77.051,75.268,81.143z M81.607,47.169c1.095,4.968,0.983,11.1-1.963,15.505
	C77.855,57.516,78.867,51.835,81.607,47.169z M95.102,74.898c-5.363-0.723-10.458-3.432-13.413-8.023
	C86.974,67.275,91.869,70.971,95.102,74.898z M97.381,55.644c-2.177-5.005-1.603-10.747,0.773-15.609
	C99.625,44.904,99.982,51.027,97.381,55.644z M113.728,66.653c-5.403-0.312-10.691-2.624-13.986-6.975
	C105.042,59.673,110.204,62.984,113.728,66.653z M113.971,45.512c-3.123-4.477-3.693-10.219-2.324-15.455
	C114.05,34.541,115.61,40.472,113.971,45.512z M132.171,53.076c-5.358,0.761-10.997-0.461-15.089-4.075
	C122.277,47.949,127.991,50.176,132.171,53.076z M128.643,33.898c-3.549-4.148-4.683-9.806-3.836-15.151
	C127.64,22.972,129.777,28.721,128.643,33.898z M147.499,39.632c-5.258,1.285-10.99,0.625-15.417-2.57
	C137.148,35.504,143.053,37.158,147.499,39.632z M141.391,19.209c-4.076-3.63-5.964-9.084-5.847-14.494
	C138.923,8.518,141.816,13.926,141.391,19.209z M145.226,21.88c4.81-2.228,10.883-1.387,15.623,0.465
	C155.813,24.328,150.044,24.448,145.226,21.88z"/>
</svg>
